<svg width="20" height="20" viewBox="0 0 20 20" fill="none" xmlns="http://www.w3.org/2000/svg">
<g clip-path="url(#clip0_6902_44426)">
<path d="M10 0C8.02219 0 6.08879 0.58649 4.4443 1.6853C2.79981 2.78412 1.51809 4.3459 0.761209 6.17317C0.00433286 8.00043 -0.193701 10.0111 0.192152 11.9509C0.578004 13.8907 1.53041 15.6725 2.92894 17.0711C4.32746 18.4696 6.10929 19.422 8.0491 19.8079C9.98891 20.1937 11.9996 19.9957 13.8268 19.2388C15.6541 18.4819 17.2159 17.2002 18.3147 15.5557C19.4135 13.9112 20 11.9778 20 10C19.9971 7.34872 18.9426 4.80684 17.0679 2.9321C15.1932 1.05736 12.6513 0.00286757 10 0ZM10 1.66667C11.9221 1.66513 13.7849 2.33146 15.27 3.55167L3.55167 15.27C2.55214 14.0499 1.91972 12.5709 1.72802 11.0054C1.53632 9.43978 1.79322 7.85195 2.46883 6.4267C3.14443 5.00145 4.21095 3.7974 5.54424 2.9547C6.87752 2.11201 8.42273 1.66533 10 1.66667ZM10 18.3333C8.07795 18.3349 6.21507 17.6685 4.73 16.4483L16.4483 4.73C17.4479 5.95013 18.0803 7.42907 18.272 8.99465C18.4637 10.5602 18.2068 12.1481 17.5312 13.5733C16.8556 14.9986 15.7891 16.2026 14.4558 17.0453C13.1225 17.888 11.5773 18.3347 10 18.3333Z" fill="white"/>
</g>
<defs>
<clipPath id="clip0_6902_44426">
<rect width="20" height="20" fill="white"/>
</clipPath>
</defs>
</svg>
