<svg width="16" height="16" viewBox="0 0 16 16" fill="none" xmlns="http://www.w3.org/2000/svg">
<path d="M12.6667 4.00019H11.8493C12.7913 3.08019 12.9353 1.87019 12.2127 0.906861C11.8493 0.421527 11.3193 0.108194 10.72 0.0228608C10.1187 -0.0644726 9.52333 0.0908607 9.03933 0.453527C8.58733 0.792194 8.254 1.22353 8.008 1.66219C7.762 1.22286 7.42867 0.792194 6.97667 0.453527C6.49267 0.0901941 5.896 -0.0644726 5.29667 0.0228608C4.69733 0.108194 4.16733 0.422194 3.804 0.906861C3.08533 1.86486 3.224 3.06686 4.16867 4.00019H3.33333C1.49533 4.00019 0 5.49553 0 7.33353V12.6669C0 14.5049 1.49533 16.0002 3.33333 16.0002H12.6667C14.5047 16.0002 16 14.5049 16 12.6669V7.33353C16 5.49553 14.5047 4.00019 12.6667 4.00019ZM9.84 1.52019C10.0033 1.39753 10.198 1.33353 10.398 1.33353C10.6667 1.33353 10.9967 1.50753 11.1467 1.70686C11.574 2.27619 11.1753 2.80286 10.918 3.04886C9.87733 3.97219 8.77333 4.00019 8.67933 4.00086H8.67067C8.68333 3.94019 8.68733 3.87686 8.682 3.81219L8.68067 3.79819C8.74 3.39953 8.988 2.15886 9.84 1.52019ZM5.11733 3.06419C4.84133 2.80086 4.44333 2.27619 4.87067 1.70619C5.02067 1.50686 5.23867 1.37753 5.48533 1.34219C5.734 1.31019 5.978 1.37086 6.17733 1.52019C7.03 2.15953 7.278 3.40153 7.33733 3.79753L7.336 3.81153C7.33067 3.87619 7.33467 3.93953 7.34733 4.00019H7.33867C7.24467 4.00019 6.14067 3.97153 5.11733 3.06419ZM3.33333 5.33286H7.216C6.71533 6.63353 4.772 6.66553 4.66533 6.66619C4.29733 6.66619 3.99933 6.96486 3.99933 7.33286C3.99933 7.70086 4.298 7.99953 4.666 7.99953C5.61067 7.99953 7.13067 7.67419 7.99933 6.62886C8.868 7.67486 10.388 7.99953 11.3327 7.99953C11.7007 7.99953 11.9993 7.70153 11.9993 7.33286C11.9993 6.96419 11.7007 6.66619 11.3327 6.66619C11.238 6.66619 9.28067 6.64886 8.78133 5.33286H12.666C13.7687 5.33286 14.666 6.23019 14.666 7.33286V11.3329H1.33333V7.33286C1.33333 6.23019 2.23067 5.33286 3.33333 5.33286ZM12.6667 14.6662H3.33333C2.23067 14.6662 1.33333 13.7689 1.33333 12.6662H14.6667C14.6667 13.7689 13.7693 14.6662 12.6667 14.6662Z" fill="white"/>
</svg>
