<svg width="16" height="16" viewBox="0 0 16 16" fill="none" xmlns="http://www.w3.org/2000/svg">
<g clip-path="url(#clip0_6927_46738)">
<path d="M13.0947 9.53867C13.2773 9.34067 13.452 9.122 13.5887 8.88933C13.8193 8.496 13.512 8.00067 13.056 8.00067H10.9447C10.4887 8.00067 10.182 8.496 10.412 8.88933C10.548 9.122 10.7227 9.34067 10.906 9.53867C9.322 10.1247 8.00067 11.8853 8.00067 13.6747C8.00067 14.9567 9.04733 16 10.334 16H13.6673C14.954 16 16.0007 14.9567 16.0007 13.6747C16.0007 11.8853 14.6787 10.1247 13.0947 9.53867ZM13.6667 14.6667H10.3333C9.782 14.6667 9.33333 14.222 9.33333 13.6747C9.33333 12.2133 10.704 10.6667 12 10.6667C13.296 10.6667 14.6667 12.2127 14.6667 13.6747C14.6667 14.222 14.218 14.6667 13.6667 14.6667ZM12.6667 1.33333H12V0.666667C12 0.298667 11.702 0 11.3333 0C10.9647 0 10.6667 0.298667 10.6667 0.666667V1.33333H5.33333V0.666667C5.33333 0.298667 5.03467 0 4.66667 0C4.29867 0 4 0.298667 4 0.666667V1.33333H3.33333C1.49533 1.33333 0 2.82867 0 4.66667V12.6667C0 14.5047 1.49533 16 3.33333 16H6C6.368 16 6.66667 15.7013 6.66667 15.3333C6.66667 14.9653 6.368 14.6667 6 14.6667H3.33333C2.23067 14.6667 1.33333 13.7693 1.33333 12.6667V6.66667H14.6667V7.33333C14.6667 7.70133 14.9647 8 15.3333 8C15.702 8 16 7.70133 16 7.33333V4.66667C16 2.82867 14.5047 1.33333 12.6667 1.33333ZM1.33333 5.33333V4.66667C1.33333 3.564 2.23067 2.66667 3.33333 2.66667H12.6667C13.7693 2.66667 14.6667 3.564 14.6667 4.66667V5.33333H1.33333Z" fill="white"/>
</g>
<defs>
<clipPath id="clip0_6927_46738">
<rect width="16" height="16" fill="white"/>
</clipPath>
</defs>
</svg>
