<svg width="16" height="16" viewBox="0 0 16 16" fill="none" xmlns="http://www.w3.org/2000/svg">
<path d="M7.85174 0.0922769L7.34068 1.78774C7.34068 1.78774 4.49129 1.75704 3.06636 1.74192C2.8401 1.7662 2.50373 1.8386 2.18362 2.06268C2.07816 2.13646 1.9332 2.24002 1.81194 2.42927C1.64654 2.68679 1.62703 2.94478 1.6261 3.07079C1.64143 3.95656 1.65723 4.84278 1.67256 5.72855C1.67303 5.75375 1.67767 5.8124 1.71902 5.86602C1.7994 5.97095 1.94203 5.95858 1.95132 5.95766H5.11107V7.65358H1.81194C1.79614 7.65588 1.75433 7.66412 1.71902 7.69895C1.6642 7.75302 1.67117 7.82634 1.67256 7.83642V12.2364C1.68975 12.3619 1.74364 12.6272 1.95132 12.877C2.0224 12.9622 2.18037 13.1478 2.46238 13.2436C2.68074 13.3178 2.87216 13.3041 2.97344 13.2894H5.71458C5.48228 13.8544 5.24998 14.4199 5.01768 14.9849H2.92698C2.67795 14.9917 2.27189 14.972 1.81194 14.8016C1.18334 14.5688 0.817696 14.193 0.74336 14.1142C0.403273 13.7522 0.258318 13.3856 0.18584 13.1978C0.0669024 12.8889 0.0199778 12.6144 0 12.4188V2.52046C0.0380972 2.26201 0.147743 1.77262 0.51106 1.28368C0.817696 0.871274 1.16057 0.653613 1.25442 0.596334C1.55502 0.41304 1.8217 0.337432 2.04424 0.27557C2.40059 0.17705 2.70908 0.146348 2.92698 0.1381C4.56841 0.0922769 7.85174 0.0922769 7.85174 0.0922769Z" fill="#969841"/>
<path d="M8.78211 5.68208C8.78443 5.67246 9.10352 5.68637 9.12304 5.68637C9.80689 5.69462 10.4918 5.7048 11.1757 5.69335C11.9789 5.68007 12.7288 5.75325 13.4279 6.1862C13.9102 6.48497 14.1853 6.83628 14.3572 7.05715C14.4942 7.23353 14.6776 7.47267 14.8215 7.83586C15.0854 8.5016 15.022 9.25413 15.0271 9.95746C15.0326 10.7318 15.0219 11.5064 15.0075 12.2807C15.0056 12.4443 14.987 12.6679 14.9145 12.9227C14.8383 13.1906 14.7334 13.3844 14.6823 13.4724C14.4709 13.8357 14.2134 14.0481 14.0782 14.1599C13.3562 14.7555 12.2882 14.9494 12.0805 14.9847C10.1292 14.9998 8.17778 15.0152 6.22648 15.0303C6.47409 14.4347 6.72218 13.839 6.96979 13.2434H11.8945C12.0051 13.2461 12.3889 13.2426 12.7308 12.9682C12.9543 12.7891 13.0581 12.5759 13.1027 12.4641V8.8441C13.1107 8.78373 13.1717 8.26581 12.7776 7.88198C12.464 7.5768 12.0739 7.56219 11.9875 7.56127H8.36396C8.50231 6.96997 8.77804 5.70081 8.78211 5.68208Z" fill="#969841"/>
<path d="M12.2659 0C12.5721 0.000458233 13.1914 0.0483384 13.7531 0.457999C14.0629 0.683906 14.2437 0.940027 14.3566 1.09995C14.6809 1.55993 14.8111 2.00879 14.8678 2.29107C14.9347 2.67598 14.876 3.10876 14.8797 3.51705C14.8834 3.92522 14.8874 4.33386 14.8911 4.74249C14.8986 5.54068 14.8946 6.34048 14.9183 7.13867C14.5443 6.37299 13.7793 5.90603 13.0554 5.49867V2.79465C13.0545 2.70788 13.0406 2.42024 12.8233 2.15324C12.5836 1.85865 12.2505 1.78028 11.8826 1.79445C11.3409 1.81553 10.7939 1.80475 10.2513 1.81162C9.69946 1.81895 9.14746 1.82566 8.5956 1.83253C8.79674 1.23692 8.99802 0.641199 9.19916 0.0455854C10.2212 0.0304648 11.2439 0.0151207 12.2659 0Z" fill="#969841"/>
</svg>
