<svg width="40" height="40" viewBox="0 0 40 40" fill="none" xmlns="http://www.w3.org/2000/svg">
<path d="M30 20C30 20.92 29.2533 21.6667 28.3333 21.6667C27.4133 21.6667 26.6667 20.92 26.6667 20C26.6667 19.08 27.4133 18.3333 28.3333 18.3333C29.2533 18.3333 30 19.08 30 20ZM11.6667 8.33333C12.5867 8.33333 13.3333 7.58833 13.3333 6.66667C13.3333 4.82833 14.8283 3.33333 16.6667 3.33333C18.505 3.33333 20 4.82833 20 6.66667C20 7.58833 20.7467 8.33333 21.6667 8.33333C22.5867 8.33333 23.3333 7.58833 23.3333 6.66667C23.3333 2.99 20.3433 0 16.6667 0C12.99 0 10 2.99 10 6.66667C10 7.58833 10.7467 8.33333 11.6667 8.33333ZM40 21.6667V25C40 26.8433 38.7533 27.965 37.3867 28.2567C36.285 31.0133 34.2667 33.3417 31.6667 34.8467V35C31.6667 37.7567 29.4233 40 26.6667 40C24.4933 40 22.64 38.6067 21.9517 36.6667H18.0467C17.3583 38.6067 15.505 40 13.3317 40C10.575 40 8.33167 37.7567 8.33167 35V34.8683C3.94001 32.3367 1.36167 27.5733 1.69334 22.45C1.79834 20.82 2.21001 19.2717 2.86834 17.8567C1.17334 17.055 -0.00332642 15.33 -0.00332642 13.3333C-0.00332642 10.5767 2.24001 8.33333 4.99667 8.33333C5.91667 8.33333 6.66334 9.07833 6.66334 10C6.66334 10.9217 5.91667 11.6667 4.99667 11.6667C4.07667 11.6667 3.33001 12.4133 3.33001 13.3333C3.33001 14.1517 3.92334 14.8333 4.70167 14.9733C7.23667 11.935 11.1233 10 15.44 10H24.3783C25.6 7.53667 27.8817 5.81333 30.9233 5.09C31.9083 4.85833 32.9283 5.085 33.725 5.71333C34.5333 6.35333 34.9983 7.31 34.9983 8.34V14.5317C36.0117 15.6833 36.8217 17 37.385 18.41C38.7533 18.7017 40 19.8233 40 21.6667ZM36.6667 21.6667H36.1767C35.44 21.6667 34.79 21.1817 34.58 20.475C34.1233 18.9417 33.28 17.515 32.1417 16.3467C31.8367 16.035 31.6667 15.6167 31.6667 15.1833V8.34C30.0417 8.72667 27.8917 9.72333 27.06 12.2317C26.825 12.9367 26.1383 13.4217 25.41 13.3717C25.2967 13.3667 15.4433 13.335 15.4433 13.335C9.93834 13.335 5.36001 17.4333 5.02167 22.6667C4.75501 26.7817 6.99001 30.5867 10.7167 32.3583C11.2983 32.635 11.6667 33.2217 11.6667 33.8633V35.0017C11.6667 35.9217 12.415 36.6683 13.3333 36.6683C14.2517 36.6683 15 35.9217 15 35.0017C15 34.0817 15.7467 33.335 16.6667 33.335H23.3333C24.2533 33.335 25 34.08 25 35.0017C25 35.9233 25.7483 36.6683 26.6667 36.6683C27.585 36.6683 28.3333 35.9217 28.3333 35.0017V33.845C28.3333 33.2033 28.7017 32.6183 29.2817 32.3417C31.8517 31.115 33.7817 28.8733 34.58 26.195C34.79 25.4883 35.44 25.0033 36.1767 25.0033H36.6667V21.67V21.6667Z" fill="white"/>
</svg>
