<svg width="40" height="40" viewBox="0 0 40 40" fill="none" xmlns="http://www.w3.org/2000/svg">
<g clip-path="url(#clip0_6841_57782)">
<path d="M40 20C40 31.0333 31.0333 40 20 40C8.96667 40 0 31.0333 0 20C0 8.96667 8.96667 0 20 0C21.2167 0 22.45 0.116667 23.6333 0.333333C24.5333 0.5 25.1333 1.36667 24.9667 2.26667C24.8 3.16667 23.9333 3.76667 23.0333 3.6C22.05 3.41667 21.0167 3.33333 20 3.33333C10.8167 3.33333 3.33333 10.8167 3.33333 20C3.33333 29.1833 10.8167 36.6667 20 36.6667C29.1833 36.6667 36.6667 29.1833 36.6667 20C36.6667 18.9833 36.5667 17.9667 36.4 16.9667C36.2333 16.0667 36.8333 15.2 37.7333 15.0333C38.65 14.8667 39.5 15.4667 39.6667 16.3667C39.8833 17.55 40 18.7833 40 20ZM21.4333 10.1C22.35 10.2333 23.1833 9.6 23.3167 8.68333C23.45 7.76667 22.8167 6.93333 21.9 6.8C21.2667 6.71667 20.6333 6.66667 20 6.66667C12.65 6.66667 6.66667 12.65 6.66667 20C6.66667 27.35 12.65 33.3333 20 33.3333C27.35 33.3333 33.3333 27.35 33.3333 20C33.3333 19.3667 33.2833 18.7333 33.2 18.1C33.0667 17.1833 32.2333 16.55 31.3167 16.6833C30.4 16.8167 29.7667 17.65 29.9 18.5667C29.9667 19.0333 30 19.5167 30 20C30 25.5167 25.5167 30 20 30C14.4833 30 10 25.5167 10 20C10 14.4833 14.4833 10 20 10C20.4833 10 20.9667 10.0333 21.4333 10.1ZM17.7833 17.5167C18.4667 16.9 18.5333 15.85 17.9167 15.1667C17.3 14.4833 16.25 14.4167 15.5667 15.0333C14.15 16.3 13.35 18.1167 13.35 20C13.35 23.6833 16.3333 26.6667 20.0167 26.6667C21.9167 26.6667 23.7167 25.85 24.9833 24.45C25.6 23.7667 25.5333 22.7167 24.85 22.1C24.1667 21.4833 23.1167 21.55 22.5 22.2333C21.8667 22.9333 20.9667 23.35 20.0167 23.35C18.1833 23.35 16.6833 21.85 16.6833 20.0167C16.6833 19.0667 17.0833 18.1667 17.8 17.5333L17.7833 17.5167ZM20.5 17.15C19.85 17.8 19.85 18.85 20.5 19.5C20.8333 19.8333 21.25 19.9833 21.6833 19.9833C22.1167 19.9833 22.5333 19.8167 22.8667 19.5L30.7167 11.65H35.0333C35.4833 11.65 35.9 11.4667 36.2167 11.1667L39.55 7.83333C40.0333 7.35 40.1667 6.63333 39.9167 6.01667C39.6667 5.4 39.05 4.98333 38.3833 4.98333H35.05V1.66667C35.05 1 34.65 0.383333 34.0167 0.133333C33.3833 -0.133333 32.6833 0.0166667 32.2 0.5L28.8667 3.83333C28.55 4.15 28.3833 4.56667 28.3833 5.01667V9.33333L20.5333 17.1833L20.5 17.15Z" fill="white"/>
</g>
<defs>
<clipPath id="clip0_6841_57782">
<rect width="40" height="40" fill="white"/>
</clipPath>
</defs>
</svg>
