<svg width="18" height="18" viewBox="0 0 18 18" fill="none" xmlns="http://www.w3.org/2000/svg">
<path d="M14.7315 10.731C14.937 10.5082 15.1335 10.2622 15.2872 10.0005C15.5467 9.558 15.201 9.00075 14.688 9.00075H12.3127C11.7997 9.00075 11.4548 9.558 11.7135 10.0005C11.8665 10.2622 12.063 10.5082 12.2692 10.731C10.4872 11.3902 9.00075 13.371 9.00075 15.384C9.00075 16.8262 10.1783 18 11.6258 18H15.3757C16.8232 18 18.0007 16.8262 18.0007 15.384C18.0007 13.371 16.5135 11.3902 14.7315 10.731ZM15.375 16.5H11.625C11.0047 16.5 10.5 15.9997 10.5 15.384C10.5 13.74 12.042 12 13.5 12C14.958 12 16.5 13.7392 16.5 15.384C16.5 15.9997 15.9953 16.5 15.375 16.5ZM14.25 1.5H13.5V0.75C13.5 0.336 13.1647 0 12.75 0C12.3353 0 12 0.336 12 0.75V1.5H6V0.75C6 0.336 5.664 0 5.25 0C4.836 0 4.5 0.336 4.5 0.75V1.5H3.75C1.68225 1.5 0 3.18225 0 5.25V14.25C0 16.3177 1.68225 18 3.75 18H6.75C7.164 18 7.5 17.664 7.5 17.25C7.5 16.836 7.164 16.5 6.75 16.5H3.75C2.5095 16.5 1.5 15.4905 1.5 14.25V7.5H16.5V8.25C16.5 8.664 16.8353 9 17.25 9C17.6647 9 18 8.664 18 8.25V5.25C18 3.18225 16.3177 1.5 14.25 1.5ZM1.5 6V5.25C1.5 4.0095 2.5095 3 3.75 3H14.25C15.4905 3 16.5 4.0095 16.5 5.25V6H1.5Z" fill="white"/>
</svg>
