<svg width="18" height="18" viewBox="0 0 18 18" fill="none" xmlns="http://www.w3.org/2000/svg">
<path d="M14.625 0H3.375C1.51425 0 0 1.51425 0 3.375V3.75C0 4.41225 0.29325 5.0025 0.75 5.415V14.25C0.75 16.3177 2.43225 18 4.5 18H6.75C7.164 18 7.5 17.664 7.5 17.25C7.5 16.836 7.164 16.5 6.75 16.5H4.5C3.2595 16.5 2.25 15.4905 2.25 14.25V6H15.75V6.75C15.75 7.164 16.0853 7.5 16.5 7.5C16.9147 7.5 17.25 7.164 17.25 6.75V5.415C17.7068 5.00325 18 4.41225 18 3.75V3.375C18 1.51425 16.4857 0 14.625 0ZM2.25 4.5C1.83675 4.5 1.5 4.16325 1.5 3.75V3.375C1.5 2.3415 2.3415 1.5 3.375 1.5H14.625C15.6592 1.5 16.5 2.3415 16.5 3.375V3.75C16.5 4.16325 16.164 4.5 15.75 4.5H2.25ZM12.75 7.5C9.85575 7.5 7.5 9.855 7.5 12.75C7.5 15.645 9.85575 18 12.75 18C15.6442 18 18 15.645 18 12.75C18 9.855 15.6442 7.5 12.75 7.5ZM12.75 16.5C10.6823 16.5 9 14.8177 9 12.75C9 10.6823 10.6823 9 12.75 9C14.8177 9 16.5 10.6823 16.5 12.75C16.5 14.8177 14.8177 16.5 12.75 16.5ZM14.4053 13.3447C14.6985 13.638 14.6985 14.112 14.4053 14.4053C14.259 14.5515 14.067 14.625 13.875 14.625C13.683 14.625 13.491 14.5515 13.3447 14.4053L12.2197 13.2803C12.0787 13.1393 12 12.9487 12 12.75V11.25C12 10.836 12.3353 10.5 12.75 10.5C13.1647 10.5 13.5 10.836 13.5 11.25V12.4395L14.4053 13.3447Z" fill="white"/>
</svg>
