<svg width="18" height="18" viewBox="0 0 18 18" fill="none" xmlns="http://www.w3.org/2000/svg">
<path d="M14.25 1.5H13.5V0.75C13.5 0.336 13.1647 0 12.75 0C12.3353 0 12 0.336 12 0.75V1.5H6V0.75C6 0.336 5.66475 0 5.25 0C4.83525 0 4.5 0.336 4.5 0.75V1.5H3.75C1.68225 1.5 0 3.18225 0 5.25V14.25C0 16.3177 1.68225 18 3.75 18H14.25C16.3177 18 18 16.3177 18 14.25V5.25C18 3.18225 16.3177 1.5 14.25 1.5ZM3.75 3H14.25C15.4905 3 16.5 4.0095 16.5 5.25V6H1.5V5.25C1.5 4.0095 2.5095 3 3.75 3ZM14.25 16.5H3.75C2.5095 16.5 1.5 15.4905 1.5 14.25V7.5H16.5V14.25C16.5 15.4905 15.4905 16.5 14.25 16.5ZM12.2333 13.8975C11.5808 15.0053 10.3755 15.75 9 15.75C8.172 15.75 7.37925 15.4725 6.7365 14.9865L6.1245 15.5985C5.802 15.921 5.25075 15.6923 5.25075 15.2363V13.215C5.25075 12.9578 5.45925 12.75 5.7165 12.75H7.73775C8.19375 12.75 8.4225 13.3013 8.1 13.6238L7.8195 13.9042C8.1705 14.1217 8.5755 14.25 9.00075 14.25C9.82875 14.25 10.548 13.7977 10.9365 13.1287C11.0715 12.8962 11.3167 12.75 11.586 12.75C12.174 12.75 12.5318 13.3913 12.2333 13.8975ZM12.75 8.763V10.7842C12.75 11.0415 12.5415 11.25 12.2842 11.25H10.263C9.807 11.25 9.57825 10.6987 9.90075 10.3755L10.1812 10.095C9.83025 9.8775 9.42525 9.74925 9 9.74925C8.172 9.74925 7.45275 10.2015 7.06425 10.8705C6.92925 11.103 6.684 11.2492 6.41475 11.2492C5.82675 11.2492 5.46825 10.608 5.76675 10.1017C6.41925 8.994 7.6245 8.24925 9 8.24925C9.828 8.24925 10.6207 8.52675 11.2635 9.01275L11.8763 8.4C12.1988 8.0775 12.75 8.30625 12.75 8.76225V8.763Z" fill="white"/>
</svg>
