<svg width="18" height="18" viewBox="0 0 18 18" fill="none" xmlns="http://www.w3.org/2000/svg">
<g clip-path="url(#clip0_7025_12614)">
<path d="M5.25 10.5C6.9075 10.5 8.25 9.1575 8.25 7.5C8.25 5.8425 6.9075 4.5 5.25 4.5C3.5925 4.5 2.25 5.8425 2.25 7.5C2.25 9.1575 3.5925 10.5 5.25 10.5ZM5.25 6C6.075 6 6.75 6.675 6.75 7.5C6.75 8.325 6.075 9 5.25 9C4.425 9 3.75 8.325 3.75 7.5C3.75 6.675 4.425 6 5.25 6ZM10.5 17.25C10.5 17.6625 10.1625 18 9.75 18C9.3375 18 9 17.6625 9 17.25C9 15.18 7.32 13.5 5.25 13.5C3.18 13.5 1.5 15.18 1.5 17.25C1.5 17.6625 1.1625 18 0.75 18C0.3375 18 0 17.6625 0 17.25C0 14.355 2.355 12 5.25 12C8.145 12 10.5 14.355 10.5 17.25ZM18 3.75V9.75C18 11.82 16.32 13.5 14.25 13.5H11.25C10.8375 13.5 10.5 13.1625 10.5 12.75C10.5 12.3375 10.8375 12 11.25 12H14.25C15.4875 12 16.5 10.9875 16.5 9.75V3.75C16.5 2.5125 15.4875 1.5 14.25 1.5H7.095C6.2925 1.5 5.55 1.935 5.145 2.625C4.935 2.985 4.4775 3.105 4.1175 2.9025C3.7575 2.6925 3.6375 2.235 3.8475 1.875C4.5225 0.72 5.7675 0 7.095 0H14.25C16.32 0 18 1.68 18 3.75ZM10.2525 8.19L12.4425 6H11.25C10.8375 6 10.5 5.6625 10.5 5.25C10.5 4.8375 10.8375 4.5 11.25 4.5H13.5C14.325 4.5 15 5.175 15 6V8.25C15 8.6625 14.6625 9 14.25 9C13.8375 9 13.5 8.6625 13.5 8.25V7.0575L11.31 9.2475C10.965 9.5925 10.5 9.78 10.0275 9.78C9.8625 9.78 9.6975 9.7575 9.5325 9.7125C9.135 9.6 8.9025 9.1875 9.015 8.79C9.1275 8.3925 9.54 8.16 9.945 8.2725C10.035 8.295 10.155 8.2875 10.2525 8.19Z" fill="white"/>
</g>
<defs>
<clipPath id="clip0_7025_12614">
<rect width="18" height="18" fill="white"/>
</clipPath>
</defs>
</svg>
