<svg width="18" height="18" viewBox="0 0 18 18" fill="none" xmlns="http://www.w3.org/2000/svg">
<path d="M13.3215 6.74831C12.069 6.74831 10.9658 6.99956 10.143 7.41806V3.37331C10.143 1.64981 7.59225 0.748313 5.0715 0.748313C2.55075 0.748313 0 1.64981 0 3.37331V15.3733C0 17.0968 2.55075 17.9983 5.0715 17.9983C6.7485 17.9983 8.4345 17.5971 9.378 16.8223C10.1947 17.5401 11.6242 17.9983 13.3215 17.9983C15.9892 17.9983 18 16.8696 18 15.3733V9.37331C18 7.87706 15.9885 6.74831 13.3215 6.74831ZM16.5 12.3733C16.5 12.7596 15.2625 13.4983 13.3215 13.4983C11.3805 13.4983 10.143 12.7596 10.143 12.3733V11.3286C10.9658 11.7471 12.0697 11.9983 13.3215 11.9983C14.5732 11.9983 15.6772 11.7471 16.5 11.3286V12.3733ZM8.64225 6.37331C8.64225 6.66281 7.41375 7.49831 5.07075 7.49831C2.72775 7.49831 1.49925 6.66281 1.49925 6.37331V5.28581C2.4615 5.75606 3.76875 5.99831 5.07075 5.99831C6.37275 5.99831 7.68 5.75606 8.64225 5.28581V6.37331ZM5.07075 8.99831C6.37275 8.99831 7.68 8.75606 8.64225 8.28581V9.37331C8.64225 9.66281 7.41375 10.4983 5.07075 10.4983C2.72775 10.4983 1.49925 9.66281 1.49925 9.37331V8.28581C2.4615 8.75606 3.76875 8.99831 5.07075 8.99831ZM1.49925 11.2858C2.4615 11.7561 3.76875 11.9983 5.07075 11.9983C6.37275 11.9983 7.68 11.7561 8.64225 11.2858V12.3733C8.64225 12.6628 7.41375 13.4983 5.07075 13.4983C2.72775 13.4983 1.49925 12.6628 1.49925 12.3733V11.2858ZM13.3207 8.24831C15.2617 8.24831 16.4993 8.98706 16.4993 9.37331C16.4993 9.75956 15.2617 10.4983 13.3207 10.4983C11.3797 10.4983 10.1422 9.75956 10.1422 9.37331C10.1422 8.98706 11.3797 8.24831 13.3207 8.24831ZM5.0715 2.24831C7.4145 2.24831 8.643 3.08381 8.643 3.37331C8.643 3.66281 7.4145 4.49831 5.0715 4.49831C2.7285 4.49831 1.5 3.66281 1.5 3.37331C1.5 3.08381 2.7285 2.24831 5.0715 2.24831ZM5.0715 16.4983C2.7285 16.4983 1.5 15.6628 1.5 15.3733V14.2858C2.46225 14.7561 3.7695 14.9983 5.0715 14.9983C6.3735 14.9983 7.68075 14.7561 8.643 14.2858V15.3733C8.643 15.6628 7.4145 16.4983 5.0715 16.4983ZM13.3215 16.4983C11.3805 16.4983 10.143 15.7596 10.143 15.3733V14.3286C10.9658 14.7471 12.0697 14.9983 13.3215 14.9983C14.5732 14.9983 15.6772 14.7471 16.5 14.3286V15.3733C16.5 15.7596 15.2625 16.4983 13.3215 16.4983ZM11.691 2.96306C11.4 2.66831 11.403 2.19356 11.6985 1.90256L13.1865 0.433313C13.7648 -0.144937 14.7112 -0.144937 15.2955 0.436313L16.7977 1.89956C17.0947 2.18831 17.1007 2.66306 16.8127 2.96006C16.5225 3.25631 16.0485 3.26306 15.7523 2.97431L15 2.24231V5.24831C15 5.66231 14.6647 5.99831 14.25 5.99831C13.8353 5.99831 13.5 5.66231 13.5 5.24831V2.23331C13.2067 2.47031 12.6607 3.24206 12.225 3.18581C12.0315 3.18581 11.838 3.11156 11.691 2.96306Z" fill="white"/>
</svg>
