<svg width="42" height="42" viewBox="0 0 42 42" fill="none" xmlns="http://www.w3.org/2000/svg">
<rect width="41.7181" height="41.7181" rx="8.02271" fill="white"/>
<path d="M21.3623 7.42871L20.4444 10.516C20.4444 10.516 15.327 10.4601 12.7679 10.4326C12.3615 10.4768 11.7574 10.6087 11.1825 11.0167C10.9931 11.151 10.7327 11.3396 10.5149 11.6842C10.2179 12.1531 10.1829 12.6229 10.1812 12.8524C10.2087 14.4653 10.2371 16.0791 10.2646 17.692C10.2655 17.7379 10.2738 17.8447 10.3481 17.9423C10.4924 18.1334 10.7486 18.1108 10.7653 18.1092H16.4401V21.1973H10.5149C10.4866 21.2015 10.4115 21.2165 10.3481 21.2799C10.2496 21.3784 10.2621 21.5119 10.2646 21.5303V29.5423C10.2955 29.7709 10.3923 30.254 10.7653 30.7088C10.8929 30.864 11.1766 31.2019 11.6831 31.3763C12.0753 31.5115 12.4191 31.4865 12.601 31.4598H17.524C17.1068 32.4886 16.6896 33.5182 16.2724 34.5471H12.5175C12.0703 34.5596 11.341 34.5237 10.5149 34.2133C9.38599 33.7894 8.72931 33.1052 8.5958 32.9617C7.98501 32.3025 7.72467 31.635 7.59451 31.2929C7.3809 30.7305 7.29662 30.2307 7.26074 29.8744V11.8503C7.32916 11.3796 7.52608 10.4885 8.17859 9.59818C8.72931 8.84721 9.3451 8.45086 9.51365 8.34656C10.0535 8.0128 10.5325 7.87512 10.9322 7.76248C11.5721 7.58308 12.1262 7.52717 12.5175 7.51215C15.4655 7.42871 21.3623 7.42871 21.3623 7.42871Z" fill="#313215"/>
<path d="M23.0332 17.6074C23.0374 17.5899 23.6105 17.6152 23.6455 17.6152C24.8737 17.6303 26.1039 17.6488 27.332 17.6279C28.7745 17.6038 30.1213 17.737 31.377 18.5254C32.2431 19.0694 32.7372 19.7091 33.0459 20.1113C33.292 20.4325 33.6213 20.868 33.8799 21.5293C34.3538 22.7416 34.2399 24.1119 34.249 25.3926C34.259 26.8026 34.2397 28.213 34.2139 29.623C34.2105 29.9209 34.177 30.3281 34.0469 30.792C33.91 31.2799 33.7216 31.6328 33.6299 31.793C33.2502 32.4546 32.7877 32.8413 32.5449 33.0449C31.2483 34.1295 29.33 34.4826 28.957 34.5469C25.4525 34.5744 21.9478 34.6023 18.4434 34.6299C18.8881 33.5453 19.3336 32.4606 19.7783 31.376H28.623C28.8216 31.381 29.5109 31.3747 30.125 30.875C30.5264 30.5487 30.7129 30.1606 30.793 29.957V23.3652C30.8072 23.2553 30.9169 22.3122 30.209 21.6133C29.6458 21.0576 28.9452 21.031 28.79 21.0293H22.2822C22.5307 19.9526 23.0259 17.6425 23.0332 17.6084V17.6074ZM29.29 7.26074C29.8399 7.26158 30.9521 7.34876 31.9609 8.09473C32.5175 8.50609 32.8422 8.97247 33.0449 9.26367C33.6272 10.1013 33.8611 10.9186 33.9629 11.4326C34.083 12.1335 33.9777 12.9216 33.9844 13.665C33.991 14.4083 33.9982 15.1524 34.0049 15.8965C34.0182 17.3499 34.0112 18.8063 34.0537 20.2598C33.382 18.8655 32.008 18.0152 30.708 17.2734V12.3496C30.7063 12.1916 30.6813 11.6678 30.291 11.1816C29.8605 10.6452 29.2623 10.5025 28.6016 10.5283C27.6287 10.5667 26.6464 10.5471 25.6719 10.5596C24.6808 10.5729 23.6894 10.5851 22.6982 10.5977C23.0595 9.51309 23.421 8.42832 23.7822 7.34375H23.7832C25.6188 7.31622 27.4545 7.28828 29.29 7.26074Z" fill="#313215"/>
</svg>
