<svg width="18" height="11" viewBox="0 0 18 11" fill="none" xmlns="http://www.w3.org/2000/svg">
<path d="M10.897 9.25913H6.25684V1.10938H10.897V9.25913Z" fill="#FF5F00"/>
<path d="M6.55482 5.18308C6.55482 3.52985 7.34684 2.05719 8.58027 1.10818C7.67829 0.414212 6.53999 0 5.30283 0C2.37411 0 0 2.32052 0 5.18308C0 8.0456 2.37411 10.3661 5.30283 10.3661C6.53999 10.3661 7.67829 9.95192 8.58027 9.25794C7.34684 8.30893 6.55482 6.83627 6.55482 5.18308Z" fill="#EB001B"/>
<path d="M17.1568 5.18308C17.1568 8.0456 14.7826 10.3661 11.8539 10.3661C10.6168 10.3661 9.47846 9.95192 8.57617 9.25794C9.80992 8.30893 10.6019 6.83627 10.6019 5.18308C10.6019 3.52985 9.80992 2.05719 8.57617 1.10818C9.47846 0.414212 10.6168 0 11.8539 0C14.7826 0 17.1568 2.32052 17.1568 5.18308Z" fill="#F79E1B"/>
</svg>
