<svg width="20" height="20" viewBox="0 0 20 20" fill="none" xmlns="http://www.w3.org/2000/svg">
<g clip-path="url(#clip0_6902_44434)">
<path d="M1.66667 11.6668C2.58714 11.6668 3.33333 10.9206 3.33333 10.0002C3.33333 9.07969 2.58714 8.3335 1.66667 8.3335C0.746192 8.3335 0 9.07969 0 10.0002C0 10.9206 0.746192 11.6668 1.66667 11.6668Z" fill="white"/>
<path d="M10.0007 11.6668C10.9211 11.6668 11.6673 10.9206 11.6673 10.0002C11.6673 9.07969 10.9211 8.3335 10.0007 8.3335C9.08018 8.3335 8.33398 9.07969 8.33398 10.0002C8.33398 10.9206 9.08018 11.6668 10.0007 11.6668Z" fill="white"/>
<path d="M18.3327 11.6668C19.2532 11.6668 19.9993 10.9206 19.9993 10.0002C19.9993 9.07969 19.2532 8.3335 18.3327 8.3335C17.4122 8.3335 16.666 9.07969 16.666 10.0002C16.666 10.9206 17.4122 11.6668 18.3327 11.6668Z" fill="white"/>
</g>
<defs>
<clipPath id="clip0_6902_44434">
<rect width="20" height="20" fill="white"/>
</clipPath>
</defs>
</svg>
