<svg width="20" height="20" viewBox="0 0 20 20" fill="none" xmlns="http://www.w3.org/2000/svg">
<g clip-path="url(#clip0_6902_44430)">
<path d="M13.3333 10.0083C13.3333 8.16667 11.8417 6.675 10 6.675C8.15833 6.675 6.66667 8.16667 6.66667 10.0083C6.66667 11.85 8.15833 13.3417 10 13.3417C11.8417 13.3417 13.3333 11.85 13.3333 10.0083ZM10 11.675C9.08333 11.675 8.33333 10.925 8.33333 10.0083C8.33333 9.09167 9.08333 8.34167 10 8.34167C10.9167 8.34167 11.6667 9.09167 11.6667 10.0083C11.6667 10.925 10.9167 11.675 10 11.675ZM16.6667 0H3.33333C1.49167 0 0 1.5 0 3.34167V4.175C0 6.00833 1.49167 7.50833 3.33333 7.50833V15.8417C3.33333 18.1417 5.2 20.0083 7.5 20.0083H12.5C14.8 20.0083 16.6667 18.1417 16.6667 15.8417V7.50833C18.5083 7.50833 20 6.01667 20 4.175V3.34167C20 1.5 18.5083 0 16.6667 0ZM18.3333 4.16667C18.3333 5.08333 17.5833 5.83333 16.6667 5.83333V4.16667C16.6667 3.70833 16.2917 3.33333 15.8333 3.33333C15.375 3.33333 15 3.70833 15 4.16667V15.8333C15 17.2083 13.875 18.3333 12.5 18.3333H7.5C6.125 18.3333 5 17.2083 5 15.8333V4.175C5 3.71667 4.625 3.34167 4.16667 3.34167C3.70833 3.34167 3.33333 3.71667 3.33333 4.175V5.84167C2.41667 5.84167 1.66667 5.09167 1.66667 4.175V3.34167C1.66667 2.425 2.41667 1.675 3.33333 1.675H16.6667C17.5833 1.675 18.3333 2.425 18.3333 3.34167V4.175V4.16667ZM14.1667 16.25C14.1667 16.9417 13.6083 17.5 12.9167 17.5C12.225 17.5 11.6667 16.9417 11.6667 16.25C11.6667 15.5583 12.225 15 12.9167 15C13.6083 15 14.1667 15.5583 14.1667 16.25ZM8.33333 16.25C8.33333 16.9417 7.775 17.5 7.08333 17.5C6.39167 17.5 5.83333 16.9417 5.83333 16.25C5.83333 15.5583 6.39167 15 7.08333 15C7.775 15 8.33333 15.5583 8.33333 16.25Z" fill="white"/>
</g>
<defs>
<clipPath id="clip0_6902_44430">
<rect width="20" height="20" fill="white"/>
</clipPath>
</defs>
</svg>
