<svg width="20" height="20" viewBox="0 0 20 20" fill="none" xmlns="http://www.w3.org/2000/svg">
<g clip-path="url(#clip0_6907_46763)">
<path d="M1.0775 11.0775L2.155 10L1.0775 8.9225C0.751667 8.59667 0.751667 8.07 1.0775 7.74417C1.40333 7.41833 1.93 7.41833 2.25583 7.74417L3.33333 8.82167L4.41083 7.74417C4.73667 7.41833 5.26333 7.41833 5.58917 7.74417C5.915 8.07 5.915 8.59667 5.58917 8.9225L4.51167 10L5.58917 11.0775C5.915 11.4033 5.915 11.93 5.58917 12.2558C5.42667 12.4183 5.21333 12.5 5 12.5C4.78667 12.5 4.57333 12.4183 4.41083 12.2558L3.33333 11.1783L2.25583 12.2558C2.09333 12.4183 1.88 12.5 1.66667 12.5C1.45333 12.5 1.24 12.4183 1.0775 12.2558C0.751667 11.93 0.751667 11.4033 1.0775 11.0775ZM5.83333 18.3333H4.16667C2.78833 18.3333 1.66667 17.2117 1.66667 15.8333V14.1667C1.66667 13.7058 1.29333 13.3333 0.833333 13.3333C0.373333 13.3333 0 13.7058 0 14.1667V15.8333C0 18.1308 1.86917 20 4.16667 20H5.83333C6.29333 20 6.66667 19.6275 6.66667 19.1667C6.66667 18.7058 6.29333 18.3333 5.83333 18.3333ZM5.83333 0H4.16667C1.86917 0 0 1.86917 0 4.16667V5.83333C0 6.29333 0.373333 6.66667 0.833333 6.66667C1.29333 6.66667 1.66667 6.29333 1.66667 5.83333V4.16667C1.66667 2.78833 2.78833 1.66667 4.16667 1.66667H5.83333C6.29333 1.66667 6.66667 1.29333 6.66667 0.833333C6.66667 0.373333 6.29333 0 5.83333 0ZM15.8333 0H14.1667C13.7067 0 13.3333 0.373333 13.3333 0.833333C13.3333 1.29333 13.7067 1.66667 14.1667 1.66667H15.8333C17.2117 1.66667 18.3333 2.78833 18.3333 4.16667V5.83333C18.3333 6.29333 18.7067 6.66667 19.1667 6.66667C19.6267 6.66667 20 6.29333 20 5.83333V4.16667C20 1.86917 18.1308 0 15.8333 0ZM12.2558 7.74417C11.93 7.41833 11.4033 7.41833 11.0775 7.74417L10 8.82167L8.9225 7.74417C8.59667 7.41833 8.07 7.41833 7.74417 7.74417C7.41833 8.07 7.41833 8.59667 7.74417 8.9225L8.82167 10L7.74417 11.0775C7.41833 11.4033 7.41833 11.93 7.74417 12.2558C7.90667 12.4183 8.12 12.5 8.33333 12.5C8.54667 12.5 8.76 12.4183 8.9225 12.2558L10 11.1783L11.0775 12.2558C11.24 12.4183 11.4533 12.5 11.6667 12.5C11.88 12.5 12.0933 12.4183 12.2558 12.2558C12.5817 11.93 12.5817 11.4033 12.2558 11.0775L11.1783 10L12.2558 8.9225C12.5817 8.59667 12.5817 8.07 12.2558 7.74417ZM14.4108 12.2558C14.5733 12.4183 14.7867 12.5 15 12.5C15.2133 12.5 15.4267 12.4183 15.5892 12.2558L16.6667 11.1783L17.7442 12.2558C17.9067 12.4183 18.12 12.5 18.3333 12.5C18.5467 12.5 18.76 12.4183 18.9225 12.2558C19.2483 11.93 19.2483 11.4033 18.9225 11.0775L17.845 10L18.9225 8.9225C19.2483 8.59667 19.2483 8.07 18.9225 7.74417C18.5967 7.41833 18.07 7.41833 17.7442 7.74417L16.6667 8.82167L15.5892 7.74417C15.2633 7.41833 14.7367 7.41833 14.4108 7.74417C14.085 8.07 14.085 8.59667 14.4108 8.9225L15.4883 10L14.4108 11.0775C14.085 11.4033 14.085 11.93 14.4108 12.2558ZM19.1667 13.3333C18.7067 13.3333 18.3333 13.7058 18.3333 14.1667V15.8333C18.3333 17.2117 17.2117 18.3333 15.8333 18.3333H14.1667C13.7067 18.3333 13.3333 18.7058 13.3333 19.1667C13.3333 19.6275 13.7067 20 14.1667 20H15.8333C18.1308 20 20 18.1308 20 15.8333V14.1667C20 13.7058 19.6267 13.3333 19.1667 13.3333Z" fill="white"/>
</g>
<defs>
<clipPath id="clip0_6907_46763">
<rect width="20" height="20" fill="white"/>
</clipPath>
</defs>
</svg>
