<svg width="16" height="16" viewBox="0 0 16 16" fill="none" xmlns="http://www.w3.org/2000/svg">
<g clip-path="url(#clip0_6905_44991)">
<path d="M1.33333 8C1.33333 8.368 1.03467 8.66667 0.666667 8.66667C0.298667 8.66667 0 8.368 0 8C0 3.58867 3.58867 0 8 0C9.99133 0 11.8747 0.742 13.3333 2.05133V0.666667C13.3333 0.298667 13.6313 0 14 0C14.3687 0 14.6667 0.298667 14.6667 0.666667V3C14.6667 3.91867 13.9193 4.66667 13 4.66667H10.6667C10.298 4.66667 10 4.368 10 4C10 3.632 10.298 3.33333 10.6667 3.33333H12.7507C11.5007 2.05933 9.802 1.33333 8 1.33333C4.324 1.33333 1.33333 4.324 1.33333 8ZM15.3333 7.33333C14.9647 7.33333 14.6667 7.632 14.6667 8C14.6667 11.676 11.676 14.6667 8 14.6667C6.198 14.6667 4.49933 13.9407 3.24867 12.6667H5.33333C5.70133 12.6667 6 12.368 6 12C6 11.632 5.70133 11.3333 5.33333 11.3333H3C2.08133 11.3333 1.33333 12.0813 1.33333 13V15.3333C1.33333 15.7013 1.632 16 2 16C2.368 16 2.66667 15.7013 2.66667 15.3333V13.9487C4.12467 15.258 6.00867 16 8 16C12.4113 16 16 12.4113 16 8C16 7.632 15.702 7.33333 15.3333 7.33333ZM11.7973 6.57733L11.148 6.952C11.2587 7.28333 11.3333 7.63133 11.3333 8C11.3333 8.36867 11.2593 8.71667 11.148 9.048L11.7973 9.42267C12.1167 9.60667 12.226 10.0147 12.0413 10.3333C11.9173 10.5473 11.694 10.6667 11.4633 10.6667C11.35 10.6667 11.2353 10.638 11.1307 10.5773L10.482 10.2027C10.012 10.732 9.386 11.1193 8.66667 11.2653V11.9993C8.66667 12.3673 8.368 12.666 8 12.666C7.632 12.666 7.33333 12.3673 7.33333 11.9993V11.2653C6.614 11.1187 5.988 10.7313 5.518 10.2027L4.86933 10.5773C4.764 10.638 4.64933 10.6667 4.53667 10.6667C4.306 10.6667 4.082 10.5473 3.95867 10.3333C3.77467 10.014 3.884 9.60667 4.20267 9.42267L4.852 9.048C4.74133 8.71667 4.66667 8.36867 4.66667 8C4.66667 7.63133 4.74067 7.28333 4.852 6.952L4.20267 6.57733C3.884 6.39333 3.77467 5.98533 3.95867 5.66667C4.14267 5.34733 4.54933 5.238 4.86933 5.42267L5.518 5.79733C5.988 5.268 6.614 4.88067 7.33333 4.73467V4.00067C7.33333 3.63267 7.632 3.334 8 3.334C8.368 3.334 8.66667 3.63267 8.66667 4.00067V4.73467C9.386 4.88133 10.012 5.26867 10.482 5.79733L11.1307 5.42267C11.4487 5.238 11.8567 5.34733 12.0413 5.66667C12.2253 5.986 12.116 6.39333 11.7973 6.57733ZM10 8C10 6.89733 9.10267 6 8 6C6.89733 6 6 6.89733 6 8C6 9.10267 6.89733 10 8 10C9.10267 10 10 9.10267 10 8Z" fill="white"/>
</g>
<defs>
<clipPath id="clip0_6905_44991">
<rect width="16" height="16" fill="white"/>
</clipPath>
</defs>
</svg>
