<svg width="18" height="14" viewBox="0 0 18 14" fill="none" xmlns="http://www.w3.org/2000/svg">
<path d="M14.25 0H3.75C1.68225 0 0 1.68225 0 3.75V9.75C0 11.8177 1.68225 13.5 3.75 13.5H6C6.414 13.5 6.75 13.1647 6.75 12.75C6.75 12.3353 6.414 12 6 12H3.75C2.5095 12 1.5 10.9905 1.5 9.75V5.25H16.5V6.75C16.5 7.16475 16.836 7.5 17.25 7.5C17.664 7.5 18 7.16475 18 6.75V3.75C18 1.68225 16.3177 0 14.25 0ZM1.5 3.75C1.5 2.5095 2.5095 1.5 3.75 1.5H14.25C15.4905 1.5 16.5 2.5095 16.5 3.75H1.5ZM9.18825 10.5007V11.9993C9.18825 12.336 9.45675 12.5625 9.75 12.5625C9.966 12.5588 10.158 12.4328 10.2517 12.2543C10.3312 12.1028 10.4918 12.0112 10.6628 12.0112C11.0168 12.0112 11.2448 12.3892 11.0775 12.7012C10.8263 13.173 10.3253 13.4955 9.75 13.4993C8.91825 13.5 8.25 12.8325 8.25 12.0112V10.4888C8.25 9.66825 8.91825 9 9.75 9C10.326 9.0045 10.8263 9.327 11.0775 9.79875C11.244 10.1115 11.0168 10.4888 10.6628 10.4888C10.4918 10.4888 10.3312 10.3972 10.2517 10.2457C10.158 10.0672 9.966 9.94125 9.75 9.9375C9.45675 9.9375 9.18825 10.164 9.18825 10.5007ZM17.895 9.54825L17.1683 13.032C17.1113 13.305 16.8705 13.5007 16.5922 13.5007C16.3222 13.5007 16.0875 13.317 16.0215 13.056L15.1432 9.567C15.0712 9.27975 15.288 9.00075 15.5842 9.00075C15.7927 9.00075 15.975 9.1425 16.0253 9.345L16.5577 11.4623L16.995 9.363C17.0392 9.15225 17.2252 9.00075 17.4405 9.00075H17.4495C17.7383 9.00075 17.9543 9.26625 17.895 9.549V9.54825ZM14.52 9.54825L13.7933 13.032C13.7363 13.305 13.4955 13.5007 13.2172 13.5007C12.9472 13.5007 12.7125 13.317 12.6465 13.056L11.7682 9.567C11.6962 9.27975 11.913 9.00075 12.2092 9.00075C12.4177 9.00075 12.6 9.1425 12.6503 9.345L13.1827 11.4623L13.62 9.363C13.6642 9.15225 13.8502 9.00075 14.0655 9.00075H14.0745C14.3633 9.00075 14.5793 9.26625 14.52 9.549V9.54825Z" fill="white"/>
</svg>
