<svg width="16" height="15" viewBox="0 0 16 15" fill="none" xmlns="http://www.w3.org/2000/svg">
<path d="M12.6667 2.66667H11.282C11.058 1.398 10.1133 0.350667 8.83267 0.0213333C8.48 -0.07 8.11333 0.144667 8.02067 0.500667C7.92867 0.857333 8.144 1.22067 8.50067 1.312C9.38333 1.53933 10 2.336 10 3.24933V10.6667H2.66667C1.93133 10.6667 1.33333 10.0687 1.33333 9.33333V6.66667H3C3.36867 6.66667 3.66667 6.368 3.66667 6C3.66667 5.632 3.36867 5.33333 3 5.33333H1.33333C0.598 5.33333 0 5.93133 0 6.66667V9.33333C0 10.5867 0.869333 11.6407 2.03667 11.9247C2.01267 12.0587 2 12.1953 2 12.3333C2 13.62 3.04667 14.6667 4.33333 14.6667C5.62 14.6667 6.66667 13.62 6.66667 12.3333C6.66667 12.2207 6.658 12.11 6.642 12H9.358C9.342 12.11 9.33333 12.2207 9.33333 12.3333C9.33333 13.62 10.38 14.6667 11.6667 14.6667C12.9533 14.6667 14 13.62 14 12.3333C14 12.1953 13.9873 12.0587 13.9633 11.9247C15.1307 11.6407 16 10.5867 16 9.33333V6C16 4.162 14.5047 2.66667 12.6667 2.66667ZM14.6667 6V6.66667H11.3333V4H12.6667C13.7693 4 14.6667 4.89733 14.6667 6ZM5.33333 12.3333C5.33333 12.8847 4.88467 13.3333 4.33333 13.3333C3.782 13.3333 3.33333 12.8847 3.33333 12.3333C3.33333 12.2073 3.358 12.096 3.394 12H5.27333C5.30933 12.096 5.334 12.2073 5.334 12.3333H5.33333ZM11.6667 13.3333C11.1153 13.3333 10.6667 12.8847 10.6667 12.3333C10.6667 12.2073 10.6913 12.096 10.7273 12H12.6067C12.6427 12.096 12.6673 12.2073 12.6673 12.3333C12.6673 12.8847 12.218 13.3333 11.6667 13.3333ZM13.3333 10.6667H11.3333V8H14.6667V9.33333C14.6667 10.0687 14.0687 10.6667 13.3333 10.6667ZM0 0.666667C0 0.298667 0.298 0 0.666667 0H6.10267C6.47133 0 6.76933 0.298667 6.76933 0.666667C6.76933 1.03467 6.47133 1.33333 6.10267 1.33333H0.666667C0.298 1.33333 0 1.03467 0 0.666667ZM0 3.33333C0 2.96533 0.298 2.66667 0.666667 2.66667H4.76933C5.138 2.66667 5.436 2.96533 5.436 3.33333C5.436 3.70133 5.138 4 4.76933 4H0.666667C0.298 4 0 3.70133 0 3.33333Z" fill="white"/>
</svg>
