<svg width="26" height="16" viewBox="0 0 26 16" fill="none" xmlns="http://www.w3.org/2000/svg">
<g clip-path="url(#clip0_6848_14375)">
<path d="M24.6133 -0.0380859H1.38667C0.620832 -0.0380859 0 0.573195 0 1.32725V14.6734C0 15.4274 0.620832 16.0387 1.38667 16.0387H24.6133C25.3792 16.0387 26 15.4274 26 14.6734V1.32725C26 0.573195 25.3792 -0.0380859 24.6133 -0.0380859Z" fill="#00425F"/>
<path d="M5.41768 11.2515C7.6245 11.2515 9.41348 9.49001 9.41348 7.31714C9.41348 5.14427 7.6245 3.38281 5.41768 3.38281C3.21086 3.38281 1.42188 5.14427 1.42188 7.31714C1.42188 9.49001 3.21086 11.2515 5.41768 11.2515Z" fill="#EE312A"/>
<path d="M5.41731 9.0027C4.52362 7.00792 3.86824 5.14453 3.86824 5.14453H2.49805C2.49805 5.14453 3.33202 7.53631 4.8811 10.5274H5.95353C7.50261 7.53631 8.33658 5.14453 8.33658 5.14453H6.96639C6.96639 5.14453 6.31101 7.00792 5.41731 9.0027Z" fill="white"/>
<path d="M24.546 8.75502H21.8652C21.8652 8.75502 21.9248 9.63502 23.1163 9.63502C23.712 9.63502 24.3077 9.45889 24.3077 9.45889L24.4269 10.3974C24.4269 10.3974 23.8311 10.632 22.9971 10.632C21.8057 10.632 20.7334 10.0454 20.7334 8.4031C20.7334 7.11267 21.5674 6.2915 22.7588 6.2915C24.546 6.2915 24.6651 8.05116 24.546 8.75502ZM22.6993 7.11267C21.9248 7.11267 21.8652 7.93383 21.8652 7.93383H23.5332C23.5332 7.93383 23.4737 7.11267 22.6993 7.11267Z" fill="white"/>
<path d="M15.334 7.36013L15.5128 6.42163C15.5128 6.42163 14.1326 6.00926 13.0107 6.77357V10.5274H14.2022L14.2021 7.47743C14.6787 7.1255 15.334 7.36013 15.334 7.36013Z" fill="white"/>
<path d="M12.0792 8.75502H9.3985C9.3985 8.75502 9.45806 9.63502 10.6495 9.63502C11.2452 9.63502 11.8409 9.45889 11.8409 9.45889L11.9601 10.3974C11.9601 10.3974 11.3644 10.632 10.5303 10.632C9.33889 10.632 8.2666 10.0454 8.2666 8.4031C8.2666 7.11267 9.10062 6.2915 10.2921 6.2915C12.0792 6.2915 12.1983 8.05116 12.0792 8.75502ZM10.2325 7.11267C9.45806 7.11267 9.3985 7.93383 9.3985 7.93383H11.0665C11.0665 7.93383 11.0069 7.11267 10.2325 7.11267Z" fill="white"/>
<path d="M18.2285 9.12085C17.8581 8.234 17.5594 7.31979 17.3349 6.38672L16.1436 6.38687C16.1436 6.38687 16.7393 8.65145 17.752 10.5279H18.7049C19.7177 8.65145 20.3134 6.38729 20.3134 6.38729H19.1221C18.8976 7.32017 18.5988 8.23418 18.2285 9.12085Z" fill="white"/>
</g>
<defs>
<clipPath id="clip0_6848_14375">
<rect width="26" height="16" rx="2" fill="white"/>
</clipPath>
</defs>
</svg>
