<svg width="26" height="16" viewBox="0 0 26 16" fill="none" xmlns="http://www.w3.org/2000/svg">
<g clip-path="url(#clip0_6848_14386)">
<path d="M23.9275 0H2.07246C0.927874 0 0 0.838275 0 1.87234V14.1277C0 15.1617 0.927874 16 2.07246 16H23.9275C25.0721 16 26 15.1617 26 14.1277V1.87234C26 0.838275 25.0721 0 23.9275 0Z" fill="white"/>
<path fill-rule="evenodd" clip-rule="evenodd" d="M7.89394 10.5955H6.31886L5.13771 6.89823C5.08166 6.72817 4.96262 6.5778 4.78753 6.50694C4.35054 6.32887 3.86902 6.18713 3.34375 6.11566V5.9733H5.88109C6.23131 5.9733 6.49395 6.18713 6.5377 6.43548L7.15056 9.10245L8.7249 5.9733H10.2562L7.89394 10.5955ZM11.1317 10.5955H9.64414L10.869 5.9733H12.3566L11.1317 10.5955ZM14.2811 7.25379C14.3249 7.00486 14.5875 6.86251 14.894 6.86251C15.3755 6.82676 15.9 6.89826 16.3377 7.07572L16.6004 6.08052C16.1626 5.93817 15.6811 5.8667 15.2441 5.8667C13.8004 5.8667 12.7498 6.50694 12.7498 7.39554C12.7498 8.07153 13.4939 8.42646 14.0192 8.64028C14.5875 8.85349 14.8064 8.99584 14.7626 9.20905C14.7626 9.52887 14.3249 9.67123 13.8879 9.67123C13.3626 9.67123 12.8373 9.56462 12.3566 9.38652L12.0939 10.3823C12.6192 10.5598 13.1875 10.6313 13.7128 10.6313C15.3317 10.6664 16.3377 10.0268 16.3377 9.0667C16.3377 7.85768 14.2811 7.78682 14.2811 7.25379ZM21.5437 10.5955L20.3626 5.9733H19.094C18.8313 5.9733 18.5686 6.11566 18.4811 6.32887L16.2939 10.5955H17.8253L18.1309 9.92015H20.0124L20.1875 10.5955H21.5437ZM19.3128 7.21807L19.7498 8.96009H18.5249L19.3128 7.21807Z" fill="#172B85"/>
</g>
<defs>
<clipPath id="clip0_6848_14386">
<rect width="26" height="16" rx="2" fill="white"/>
</clipPath>
</defs>
</svg>
