<svg width="17" height="18" viewBox="0 0 17 18" fill="none" xmlns="http://www.w3.org/2000/svg">
<path d="M8.25005 12.0002C8.59929 12.0009 8.94386 11.9203 9.25654 11.7647L10.7565 11.0147C11.5211 10.6351 12.0034 9.85383 12.0001 9.00024V6.77499C12.0027 5.92213 11.5205 5.14187 10.7565 4.76275L9.25654 4.01276C8.62278 3.69776 7.87806 3.69776 7.2443 4.01276L5.74429 4.76275C4.98006 5.14166 4.49754 5.92199 4.50004 6.77499V9.00024C4.4973 9.8533 4.97946 10.6338 5.74355 11.0132L7.24356 11.7632C7.5561 11.9193 7.9007 12.0004 8.25005 12.0002ZM6.00005 9.00024V6.77499C6.00125 6.69849 6.01415 6.62258 6.0383 6.54999L7.67331 7.36748C8.03641 7.54895 8.46373 7.54895 8.82682 7.36748L10.4618 6.54999C10.486 6.62258 10.4989 6.69849 10.5001 6.77499V9.00024C10.5013 9.28479 10.3404 9.54523 10.0853 9.67147L8.58533 10.4215C8.37383 10.5261 8.1256 10.5261 7.9141 10.4215L6.41409 9.67147C6.15931 9.54502 5.99871 9.28465 6.00005 9.00024ZM13.5 16.5002H11.4683L14.0835 14.0837C17.3054 10.8619 17.3055 5.63835 14.0837 2.41646C10.8619 -0.805438 5.63836 -0.805474 2.41647 2.41628C-0.805425 5.63803 -0.805496 10.8617 2.41629 14.0835C2.42336 14.0906 5.03181 16.5002 5.03181 16.5002H3.00006C2.58585 16.5002 2.25007 16.836 2.25007 17.2502C2.25007 17.6644 2.58585 18.0002 3.00006 18.0002H13.5001C13.9143 18.0002 14.2501 17.6644 14.2501 17.2502C14.2501 16.836 13.9142 16.5002 13.5 16.5002ZM3.47706 3.47723C6.10731 0.835163 10.3814 0.825601 13.0234 3.45585C15.6655 6.0861 15.675 10.3602 13.0448 13.0022L10.0561 15.763C9.03597 16.7245 7.44163 16.7189 6.42832 15.7502L3.47706 13.0232C0.84509 10.3855 0.845125 6.115 3.47706 3.47723Z" fill="white"/>
</svg>
